<svg xmlns="http://www.w3.org/2000/svg" xmlns:xlink="http://www.w3.org/1999/xlink" width="200" zoomAndPan="magnify" viewBox="0 0 150 74.999997" height="100" preserveAspectRatio="xMidYMid meet" version="1.0"><defs><g/></defs><g fill="#100f0d" fill-opacity="1"><g transform="translate(10.100088, 56.339562)"><g><path d="M 0.5625 0 L 0.5625 -4.90625 L 2.171875 -4.90625 C 2.703125 -4.90625 3.097656 -4.789062 3.359375 -4.5625 C 3.628906 -4.34375 3.765625 -4.019531 3.765625 -3.59375 C 3.765625 -3.363281 3.695312 -3.160156 3.5625 -2.984375 C 3.4375 -2.804688 3.265625 -2.671875 3.046875 -2.578125 C 3.304688 -2.503906 3.515625 -2.363281 3.671875 -2.15625 C 3.828125 -1.945312 3.90625 -1.695312 3.90625 -1.40625 C 3.90625 -0.96875 3.757812 -0.625 3.46875 -0.375 C 3.1875 -0.125 2.785156 0 2.265625 0 Z M 1.21875 -2.296875 L 1.21875 -0.53125 L 2.28125 -0.53125 C 2.582031 -0.53125 2.816406 -0.609375 2.984375 -0.765625 C 3.160156 -0.921875 3.25 -1.132812 3.25 -1.40625 C 3.25 -2 2.929688 -2.296875 2.296875 -2.296875 Z M 1.21875 -2.8125 L 2.1875 -2.8125 C 2.46875 -2.8125 2.691406 -2.878906 2.859375 -3.015625 C 3.035156 -3.160156 3.125 -3.351562 3.125 -3.59375 C 3.125 -3.863281 3.046875 -4.0625 2.890625 -4.1875 C 2.734375 -4.3125 2.492188 -4.375 2.171875 -4.375 L 1.21875 -4.375 Z M 1.21875 -2.8125 "/></g></g></g><g fill="#100f0d" fill-opacity="1"><g transform="translate(19.908131, 56.339562)"><g><path d="M 1.21875 -0.53125 L 3.546875 -0.53125 L 3.546875 0 L 0.5625 0 L 0.5625 -4.90625 L 1.21875 -4.90625 Z M 1.21875 -0.53125 "/></g></g></g><g fill="#100f0d" fill-opacity="1"><g transform="translate(29.133765, 56.339562)"><g><path d="M 4.015625 -4.90625 L 4.015625 -1.5625 C 4.015625 -1.101562 3.867188 -0.726562 3.578125 -0.4375 C 3.296875 -0.144531 2.90625 0.0195312 2.40625 0.0625 L 2.234375 0.0625 C 1.703125 0.0625 1.273438 -0.078125 0.953125 -0.359375 C 0.640625 -0.648438 0.476562 -1.050781 0.46875 -1.5625 L 0.46875 -4.90625 L 1.109375 -4.90625 L 1.109375 -1.578125 C 1.109375 -1.222656 1.207031 -0.945312 1.40625 -0.75 C 1.601562 -0.5625 1.878906 -0.46875 2.234375 -0.46875 C 2.597656 -0.46875 2.878906 -0.5625 3.078125 -0.75 C 3.273438 -0.945312 3.375 -1.222656 3.375 -1.578125 L 3.375 -4.90625 Z M 4.015625 -4.90625 "/></g></g></g><g fill="#100f0d" fill-opacity="1"><g transform="translate(39.120235, 56.339562)"><g><path d="M 3.34375 -2.265625 L 1.21875 -2.265625 L 1.21875 -0.53125 L 3.6875 -0.53125 L 3.6875 0 L 0.5625 0 L 0.5625 -4.90625 L 3.640625 -4.90625 L 3.640625 -4.375 L 1.21875 -4.375 L 1.21875 -2.796875 L 3.34375 -2.796875 Z M 3.34375 -2.265625 "/></g></g></g><g fill="#100f0d" fill-opacity="1"><g transform="translate(48.554592, 56.339562)"><g><path d="M 2.015625 -2.1875 C 1.460938 -2.34375 1.054688 -2.535156 0.796875 -2.765625 C 0.546875 -3.003906 0.421875 -3.289062 0.421875 -3.625 C 0.421875 -4.007812 0.570312 -4.328125 0.875 -4.578125 C 1.1875 -4.835938 1.59375 -4.96875 2.09375 -4.96875 C 2.425781 -4.96875 2.722656 -4.898438 2.984375 -4.765625 C 3.253906 -4.640625 3.457031 -4.460938 3.59375 -4.234375 C 3.738281 -4.003906 3.8125 -3.753906 3.8125 -3.484375 L 3.171875 -3.484375 C 3.171875 -3.773438 3.078125 -4.003906 2.890625 -4.171875 C 2.703125 -4.347656 2.4375 -4.4375 2.09375 -4.4375 C 1.769531 -4.4375 1.519531 -4.363281 1.34375 -4.21875 C 1.164062 -4.082031 1.078125 -3.890625 1.078125 -3.640625 C 1.078125 -3.441406 1.160156 -3.269531 1.328125 -3.125 C 1.492188 -2.988281 1.78125 -2.863281 2.1875 -2.75 C 2.601562 -2.632812 2.925781 -2.507812 3.15625 -2.375 C 3.382812 -2.238281 3.550781 -2.078125 3.65625 -1.890625 C 3.769531 -1.710938 3.828125 -1.5 3.828125 -1.25 C 3.828125 -0.851562 3.671875 -0.535156 3.359375 -0.296875 C 3.054688 -0.0546875 2.644531 0.0625 2.125 0.0625 C 1.789062 0.0625 1.476562 0 1.1875 -0.125 C 0.894531 -0.25 0.664062 -0.425781 0.5 -0.65625 C 0.34375 -0.882812 0.265625 -1.140625 0.265625 -1.421875 L 0.921875 -1.421875 C 0.921875 -1.117188 1.03125 -0.882812 1.25 -0.71875 C 1.46875 -0.550781 1.757812 -0.46875 2.125 -0.46875 C 2.46875 -0.46875 2.726562 -0.535156 2.90625 -0.671875 C 3.082031 -0.804688 3.171875 -0.992188 3.171875 -1.234375 C 3.171875 -1.472656 3.085938 -1.65625 2.921875 -1.78125 C 2.753906 -1.914062 2.453125 -2.050781 2.015625 -2.1875 Z M 2.015625 -2.1875 "/></g></g></g><g fill="#100f0d" fill-opacity="1"><g transform="translate(58.160642, 56.339562)"><g><path d="M 1.8125 -2.28125 L 1.21875 -1.65625 L 1.21875 0 L 0.5625 0 L 0.5625 -4.90625 L 1.21875 -4.90625 L 1.21875 -2.46875 L 3.390625 -4.90625 L 4.171875 -4.90625 L 2.25 -2.734375 L 4.328125 0 L 3.546875 0 Z M 1.8125 -2.28125 "/></g></g></g><g fill="#100f0d" fill-opacity="1"><g transform="translate(67.998983, 56.339562)"><g><path d="M 2.0625 -2.4375 L 3.34375 -4.90625 L 4.078125 -4.90625 L 2.390625 -1.828125 L 2.390625 0 L 1.734375 0 L 1.734375 -1.828125 L 0.046875 -4.90625 L 0.796875 -4.90625 Z M 2.0625 -2.4375 "/></g></g></g><g fill="#100f0d" fill-opacity="1"><g transform="translate(77.655531, 56.339562)"><g/></g></g><g fill="#100f0d" fill-opacity="1"><g transform="translate(84.878084, 56.339562)"><g><path d="M 4.171875 -1.546875 C 4.109375 -1.035156 3.914062 -0.640625 3.59375 -0.359375 C 3.269531 -0.078125 2.84375 0.0625 2.3125 0.0625 C 1.738281 0.0625 1.273438 -0.140625 0.921875 -0.546875 C 0.578125 -0.960938 0.40625 -1.519531 0.40625 -2.21875 L 0.40625 -2.6875 C 0.40625 -3.144531 0.484375 -3.546875 0.640625 -3.890625 C 0.804688 -4.234375 1.035156 -4.5 1.328125 -4.6875 C 1.628906 -4.875 1.976562 -4.96875 2.375 -4.96875 C 2.894531 -4.96875 3.3125 -4.820312 3.625 -4.53125 C 3.9375 -4.238281 4.117188 -3.835938 4.171875 -3.328125 L 3.515625 -3.328125 C 3.460938 -3.710938 3.34375 -3.992188 3.15625 -4.171875 C 2.96875 -4.347656 2.707031 -4.4375 2.375 -4.4375 C 1.957031 -4.4375 1.628906 -4.28125 1.390625 -3.96875 C 1.160156 -3.664062 1.046875 -3.234375 1.046875 -2.671875 L 1.046875 -2.203125 C 1.046875 -1.671875 1.15625 -1.25 1.375 -0.9375 C 1.601562 -0.625 1.914062 -0.46875 2.3125 -0.46875 C 2.675781 -0.46875 2.953125 -0.546875 3.140625 -0.703125 C 3.328125 -0.867188 3.453125 -1.148438 3.515625 -1.546875 Z M 4.171875 -1.546875 "/></g></g></g><g fill="#100f0d" fill-opacity="1"><g transform="translate(94.881389, 56.339562)"><g><path d="M 4.34375 -2.296875 C 4.34375 -1.816406 4.257812 -1.394531 4.09375 -1.03125 C 3.9375 -0.675781 3.707031 -0.40625 3.40625 -0.21875 C 3.113281 -0.03125 2.769531 0.0625 2.375 0.0625 C 1.988281 0.0625 1.644531 -0.03125 1.34375 -0.21875 C 1.039062 -0.40625 0.804688 -0.671875 0.640625 -1.015625 C 0.484375 -1.367188 0.398438 -1.78125 0.390625 -2.25 L 0.390625 -2.59375 C 0.390625 -3.070312 0.472656 -3.488281 0.640625 -3.84375 C 0.804688 -4.207031 1.035156 -4.484375 1.328125 -4.671875 C 1.628906 -4.867188 1.972656 -4.96875 2.359375 -4.96875 C 2.753906 -4.96875 3.101562 -4.867188 3.40625 -4.671875 C 3.707031 -4.484375 3.9375 -4.207031 4.09375 -3.84375 C 4.257812 -3.488281 4.34375 -3.070312 4.34375 -2.59375 Z M 3.6875 -2.609375 C 3.6875 -3.191406 3.570312 -3.632812 3.34375 -3.9375 C 3.113281 -4.25 2.785156 -4.40625 2.359375 -4.40625 C 1.953125 -4.40625 1.628906 -4.25 1.390625 -3.9375 C 1.160156 -3.632812 1.046875 -3.207031 1.046875 -2.65625 L 1.046875 -2.296875 C 1.046875 -1.734375 1.160156 -1.289062 1.390625 -0.96875 C 1.628906 -0.644531 1.957031 -0.484375 2.375 -0.484375 C 2.789062 -0.484375 3.113281 -0.632812 3.34375 -0.9375 C 3.570312 -1.238281 3.6875 -1.675781 3.6875 -2.25 Z M 3.6875 -2.609375 "/></g></g></g><g fill="#100f0d" fill-opacity="1"><g transform="translate(105.137184, 56.339562)"><g><path d="M 0.5625 0 L 0.5625 -4.90625 L 1.953125 -4.90625 C 2.378906 -4.90625 2.753906 -4.804688 3.078125 -4.609375 C 3.410156 -4.421875 3.664062 -4.15625 3.84375 -3.8125 C 4.019531 -3.46875 4.109375 -3.066406 4.109375 -2.609375 L 4.109375 -2.296875 C 4.109375 -1.835938 4.019531 -1.429688 3.84375 -1.078125 C 3.664062 -0.734375 3.410156 -0.46875 3.078125 -0.28125 C 2.742188 -0.09375 2.359375 0 1.921875 0 Z M 1.21875 -4.375 L 1.21875 -0.53125 L 1.890625 -0.53125 C 2.390625 -0.53125 2.773438 -0.679688 3.046875 -0.984375 C 3.328125 -1.296875 3.46875 -1.738281 3.46875 -2.3125 L 3.46875 -2.59375 C 3.46875 -3.15625 3.335938 -3.585938 3.078125 -3.890625 C 2.816406 -4.203125 2.445312 -4.363281 1.96875 -4.375 Z M 1.21875 -4.375 "/></g></g></g><g fill="#100f0d" fill-opacity="1"><g transform="translate(115.174154, 56.339562)"><g><path d="M 3.34375 -2.265625 L 1.21875 -2.265625 L 1.21875 -0.53125 L 3.6875 -0.53125 L 3.6875 0 L 0.5625 0 L 0.5625 -4.90625 L 3.640625 -4.90625 L 3.640625 -4.375 L 1.21875 -4.375 L 1.21875 -2.796875 L 3.34375 -2.796875 Z M 3.34375 -2.265625 "/></g></g></g><g fill="#100f0d" fill-opacity="1"><g transform="translate(124.608516, 56.339562)"><g><path d="M 2.359375 -1.984375 L 1.21875 -1.984375 L 1.21875 0 L 0.5625 0 L 0.5625 -4.90625 L 2.1875 -4.90625 C 2.738281 -4.90625 3.160156 -4.773438 3.453125 -4.515625 C 3.753906 -4.265625 3.90625 -3.898438 3.90625 -3.421875 C 3.90625 -3.117188 3.820312 -2.851562 3.65625 -2.625 C 3.488281 -2.394531 3.257812 -2.226562 2.96875 -2.125 L 4.125 -0.046875 L 4.125 0 L 3.421875 0 Z M 1.21875 -2.515625 L 2.203125 -2.515625 C 2.523438 -2.515625 2.78125 -2.597656 2.96875 -2.765625 C 3.15625 -2.929688 3.25 -3.148438 3.25 -3.421875 C 3.25 -3.722656 3.160156 -3.953125 2.984375 -4.109375 C 2.804688 -4.273438 2.546875 -4.363281 2.203125 -4.375 L 1.21875 -4.375 Z M 1.21875 -2.515625 "/></g></g></g><g fill="#100f0d" fill-opacity="1"><g transform="translate(134.369431, 56.339562)"><g><path d="M 2.015625 -2.1875 C 1.460938 -2.34375 1.054688 -2.535156 0.796875 -2.765625 C 0.546875 -3.003906 0.421875 -3.289062 0.421875 -3.625 C 0.421875 -4.007812 0.570312 -4.328125 0.875 -4.578125 C 1.1875 -4.835938 1.59375 -4.96875 2.09375 -4.96875 C 2.425781 -4.96875 2.722656 -4.898438 2.984375 -4.765625 C 3.253906 -4.640625 3.457031 -4.460938 3.59375 -4.234375 C 3.738281 -4.003906 3.8125 -3.753906 3.8125 -3.484375 L 3.171875 -3.484375 C 3.171875 -3.773438 3.078125 -4.003906 2.890625 -4.171875 C 2.703125 -4.347656 2.4375 -4.4375 2.09375 -4.4375 C 1.769531 -4.4375 1.519531 -4.363281 1.34375 -4.21875 C 1.164062 -4.082031 1.078125 -3.890625 1.078125 -3.640625 C 1.078125 -3.441406 1.160156 -3.269531 1.328125 -3.125 C 1.492188 -2.988281 1.78125 -2.863281 2.1875 -2.75 C 2.601562 -2.632812 2.925781 -2.507812 3.15625 -2.375 C 3.382812 -2.238281 3.550781 -2.078125 3.65625 -1.890625 C 3.769531 -1.710938 3.828125 -1.5 3.828125 -1.25 C 3.828125 -0.851562 3.671875 -0.535156 3.359375 -0.296875 C 3.054688 -0.0546875 2.644531 0.0625 2.125 0.0625 C 1.789062 0.0625 1.476562 0 1.1875 -0.125 C 0.894531 -0.25 0.664062 -0.425781 0.5 -0.65625 C 0.34375 -0.882812 0.265625 -1.140625 0.265625 -1.421875 L 0.921875 -1.421875 C 0.921875 -1.117188 1.03125 -0.882812 1.25 -0.71875 C 1.46875 -0.550781 1.757812 -0.46875 2.125 -0.46875 C 2.46875 -0.46875 2.726562 -0.535156 2.90625 -0.671875 C 3.082031 -0.804688 3.171875 -0.992188 3.171875 -1.234375 C 3.171875 -1.472656 3.085938 -1.65625 2.921875 -1.78125 C 2.753906 -1.914062 2.453125 -2.050781 2.015625 -2.1875 Z M 2.015625 -2.1875 "/></g></g></g><path fill="#100f0d" d="M 1.210938 47.054688 C 1.210938 47.054688 24.34375 28.601562 28.441406 30.054688 C 32.539062 31.507812 43.269531 14.566406 46.644531 17.351562 C 50.019531 20.132812 50.742188 25.335938 54.238281 23.035156 C 57.734375 20.738281 77.382812 -0.679688 81.242188 3.679688 C 85.097656 8.035156 94.019531 20.132812 98.601562 19.285156 C 103.183594 18.4375 104.988281 25.054688 108.246094 25.074219 C 111.5 25.09375 114.996094 16.019531 118.371094 18.195312 C 121.746094 20.375 126.207031 24.730469 129.824219 27.878906 C 133.4375 31.023438 149.953125 47.597656 147.542969 47.054688 C 145.132812 46.507812 141.273438 39.734375 136.210938 39.613281 C 131.148438 39.492188 129.824219 37.558594 132.957031 40.824219 C 136.089844 44.089844 140.191406 48.566406 134.402344 43.726562 C 128.617188 38.886719 127.894531 40.097656 123.3125 35.863281 C 118.730469 31.628906 119.335938 29.328125 114.152344 28.601562 C 108.96875 27.878906 107.101562 26.847656 109.75 29.75 C 112.402344 32.65625 114.089844 35.136719 114.089844 35.136719 C 114.089844 35.136719 116.984375 39.492188 112.886719 35.136719 C 108.785156 30.78125 107.339844 29.207031 105.714844 28.601562 C 104.085938 27.996094 102.941406 24.914062 102.878906 24.488281 C 102.820312 24.066406 102.457031 20.617188 99.746094 20.617188 C 97.035156 20.617188 96.1875 20.675781 96.1875 21.707031 C 96.1875 22.734375 93.476562 21.523438 92.632812 20.800781 C 91.789062 20.070312 80.21875 4.34375 79.191406 6.21875 C 78.167969 8.09375 78.769531 8.15625 78.769531 9.726562 C 78.769531 11.300781 82.144531 13.238281 83.53125 16.019531 C 84.917969 18.800781 83.351562 16.140625 85.097656 19.589844 C 86.847656 23.035156 88.535156 24.308594 84.316406 21.34375 C 80.097656 18.378906 78.832031 13.660156 76.960938 14.445312 C 75.09375 15.234375 76.660156 14.929688 75.695312 17.53125 C 74.734375 20.132812 76.601562 17.53125 76.539062 21.28125 C 76.480469 25.035156 82.027344 24.09375 84.917969 28.632812 C 87.8125 33.167969 88.625 33.535156 91.066406 34.984375 C 93.507812 36.4375 96.582031 38.886719 93.867188 37.527344 C 91.15625 36.164062 86.09375 35.710938 83.5625 33.625 C 81.03125 31.535156 80.035156 32.351562 79.765625 34.441406 C 79.492188 36.527344 83.652344 35.800781 83.292969 37.796875 C 82.929688 39.792969 84.828125 39.160156 89.257812 44.421875 C 93.6875 49.6875 94.59375 49.050781 90.34375 47.054688 C 86.09375 45.058594 85.371094 42.0625 81.03125 40.972656 C 76.691406 39.886719 76.417969 38.886719 71.71875 37.617188 C 67.015625 36.347656 70.089844 43.605469 66.292969 39.886719 C 62.496094 36.164062 57.703125 30.992188 55.082031 29.539062 C 52.460938 28.089844 52.550781 29.175781 50.199219 27 C 47.851562 24.820312 46.222656 23.429688 47.21875 25.804688 C 48.210938 28.179688 50.289062 30.265625 51.464844 32.898438 C 52.640625 35.527344 51.195312 34.757812 52.054688 36.027344 C 52.914062 37.300781 53.320312 37.570312 53.679688 38.707031 C 54.042969 39.839844 53.996094 39.929688 52.6875 38.613281 C 51.375 37.300781 50.832031 37.253906 50.699219 36.347656 C 50.5625 35.4375 50.5625 36.527344 48.390625 35.074219 C 46.222656 33.625 45.226562 32.761719 42.878906 32.171875 C 40.527344 31.582031 41.113281 30.222656 39.757812 31.265625 C 38.402344 32.308594 38.355469 31.082031 37.90625 32.625 C 37.453125 34.167969 39.667969 33.578125 40.84375 35.257812 C 42.019531 36.933594 40.347656 36.074219 43.917969 38.707031 C 47.488281 41.335938 45.636719 40.609375 47.535156 42.289062 C 49.433594 43.96875 50.925781 43.96875 52.054688 45.875 C 53.183594 47.78125 54.675781 50.320312 52.460938 47.960938 C 50.246094 45.601562 49.976562 45.328125 47.714844 45.148438 C 45.453125 44.96875 45.09375 46.464844 43.375 44.785156 C 41.65625 43.105469 36.546875 43.425781 34.378906 41.019531 C 32.207031 38.613281 30.445312 35.300781 26.917969 36.753906 C 23.394531 38.207031 21 35.210938 19.507812 37.164062 C 18.015625 39.113281 19.324219 37.34375 21.359375 39.703125 C 23.394531 42.0625 24.117188 41.609375 24.570312 42.5625 C 25.019531 43.515625 25.019531 42.835938 22.851562 42.0625 C 20.679688 41.292969 21.722656 41.019531 20.679688 41.292969 C 19.640625 41.5625 17.515625 37.933594 13.222656 40.792969 C 8.929688 43.652344 10.195312 41.292969 7.164062 43.335938 C 4.136719 45.375 0.0507812 48.734375 1.210938 47.054688 " fill-opacity="1" fill-rule="nonzero"/></svg>