<svg xmlns="http://www.w3.org/2000/svg" xmlns:xlink="http://www.w3.org/1999/xlink" width="600" zoomAndPan="magnify" viewBox="0 0 450 449.999984" height="600" preserveAspectRatio="xMidYMid meet" version="1.0"><defs><g/></defs><g fill="#100f0d" fill-opacity="1"><g transform="translate(32.17306, 289.453043)"><g><path d="M 1.703125 0 L 1.703125 -14.734375 L 6.53125 -14.734375 C 8.125 -14.734375 9.320312 -14.398438 10.125 -13.734375 C 10.9375 -13.078125 11.34375 -12.097656 11.34375 -10.796875 C 11.34375 -10.109375 11.144531 -9.5 10.75 -8.96875 C 10.363281 -8.445312 9.832031 -8.039062 9.15625 -7.75 C 9.945312 -7.53125 10.570312 -7.109375 11.03125 -6.484375 C 11.5 -5.859375 11.734375 -5.113281 11.734375 -4.25 C 11.734375 -2.925781 11.304688 -1.882812 10.453125 -1.125 C 9.597656 -0.375 8.382812 0 6.8125 0 Z M 3.65625 -6.890625 L 3.65625 -1.59375 L 6.859375 -1.59375 C 7.765625 -1.59375 8.476562 -1.828125 9 -2.296875 C 9.519531 -2.765625 9.78125 -3.410156 9.78125 -4.234375 C 9.78125 -6.003906 8.816406 -6.890625 6.890625 -6.890625 Z M 3.65625 -8.453125 L 6.578125 -8.453125 C 7.429688 -8.453125 8.113281 -8.660156 8.625 -9.078125 C 9.132812 -9.503906 9.390625 -10.082031 9.390625 -10.8125 C 9.390625 -11.625 9.148438 -12.210938 8.671875 -12.578125 C 8.203125 -12.941406 7.488281 -13.125 6.53125 -13.125 L 3.65625 -13.125 Z M 3.65625 -8.453125 "/></g></g></g><g fill="#100f0d" fill-opacity="1"><g transform="translate(61.640123, 289.453043)"><g><path d="M 3.65625 -1.59375 L 10.640625 -1.59375 L 10.640625 0 L 1.703125 0 L 1.703125 -14.734375 L 3.65625 -14.734375 Z M 3.65625 -1.59375 "/></g></g></g><g fill="#100f0d" fill-opacity="1"><g transform="translate(89.358003, 289.453043)"><g><path d="M 12.078125 -14.734375 L 12.078125 -4.71875 C 12.066406 -3.320312 11.628906 -2.179688 10.765625 -1.296875 C 9.898438 -0.421875 8.726562 0.0703125 7.25 0.1875 L 6.734375 0.203125 C 5.117188 0.203125 3.832031 -0.226562 2.875 -1.09375 C 1.914062 -1.96875 1.429688 -3.164062 1.421875 -4.6875 L 1.421875 -14.734375 L 3.34375 -14.734375 L 3.34375 -4.75 C 3.34375 -3.6875 3.632812 -2.859375 4.21875 -2.265625 C 4.800781 -1.679688 5.640625 -1.390625 6.734375 -1.390625 C 7.828125 -1.390625 8.664062 -1.679688 9.25 -2.265625 C 9.832031 -2.847656 10.125 -3.675781 10.125 -4.75 L 10.125 -14.734375 Z M 12.078125 -14.734375 "/></g></g></g><g fill="#100f0d" fill-opacity="1"><g transform="translate(119.360936, 289.453043)"><g><path d="M 10.03125 -6.8125 L 3.65625 -6.8125 L 3.65625 -1.59375 L 11.0625 -1.59375 L 11.0625 0 L 1.703125 0 L 1.703125 -14.734375 L 10.96875 -14.734375 L 10.96875 -13.125 L 3.65625 -13.125 L 3.65625 -8.390625 L 10.03125 -8.390625 Z M 10.03125 -6.8125 "/></g></g></g><g fill="#100f0d" fill-opacity="1"><g transform="translate(147.705689, 289.453043)"><g><path d="M 6.046875 -6.5625 C 4.378906 -7.039062 3.164062 -7.628906 2.40625 -8.328125 C 1.65625 -9.023438 1.28125 -9.890625 1.28125 -10.921875 C 1.28125 -12.078125 1.742188 -13.035156 2.671875 -13.796875 C 3.597656 -14.554688 4.800781 -14.9375 6.28125 -14.9375 C 7.289062 -14.9375 8.191406 -14.738281 8.984375 -14.34375 C 9.773438 -13.957031 10.390625 -13.414062 10.828125 -12.71875 C 11.265625 -12.03125 11.484375 -11.28125 11.484375 -10.46875 L 9.53125 -10.46875 C 9.53125 -11.363281 9.242188 -12.0625 8.671875 -12.5625 C 8.109375 -13.070312 7.3125 -13.328125 6.28125 -13.328125 C 5.320312 -13.328125 4.570312 -13.113281 4.03125 -12.6875 C 3.5 -12.269531 3.234375 -11.691406 3.234375 -10.953125 C 3.234375 -10.347656 3.488281 -9.835938 4 -9.421875 C 4.507812 -9.003906 5.375 -8.625 6.59375 -8.28125 C 7.820312 -7.9375 8.78125 -7.554688 9.46875 -7.140625 C 10.164062 -6.734375 10.679688 -6.25 11.015625 -5.6875 C 11.347656 -5.132812 11.515625 -4.488281 11.515625 -3.75 C 11.515625 -2.550781 11.046875 -1.59375 10.109375 -0.875 C 9.179688 -0.15625 7.941406 0.203125 6.390625 0.203125 C 5.367188 0.203125 4.421875 0.0078125 3.546875 -0.375 C 2.671875 -0.769531 1.992188 -1.300781 1.515625 -1.96875 C 1.046875 -2.644531 0.8125 -3.410156 0.8125 -4.265625 L 2.765625 -4.265625 C 2.765625 -3.378906 3.09375 -2.675781 3.75 -2.15625 C 4.40625 -1.644531 5.285156 -1.390625 6.390625 -1.390625 C 7.410156 -1.390625 8.191406 -1.597656 8.734375 -2.015625 C 9.285156 -2.429688 9.5625 -3 9.5625 -3.71875 C 9.5625 -4.445312 9.304688 -5.003906 8.796875 -5.390625 C 8.296875 -5.785156 7.378906 -6.175781 6.046875 -6.5625 Z M 6.046875 -6.5625 "/></g></g></g><g fill="#100f0d" fill-opacity="1"><g transform="translate(176.566107, 289.453043)"><g><path d="M 5.453125 -6.84375 L 3.65625 -4.984375 L 3.65625 0 L 1.703125 0 L 1.703125 -14.734375 L 3.65625 -14.734375 L 3.65625 -7.453125 L 10.203125 -14.734375 L 12.546875 -14.734375 L 6.75 -8.21875 L 13 0 L 10.671875 0 Z M 5.453125 -6.84375 "/></g></g></g><g fill="#100f0d" fill-opacity="1"><g transform="translate(206.124157, 289.453043)"><g><path d="M 6.203125 -7.328125 L 10.046875 -14.734375 L 12.25 -14.734375 L 7.171875 -5.5 L 7.171875 0 L 5.234375 0 L 5.234375 -5.5 L 0.15625 -14.734375 L 2.375 -14.734375 Z M 6.203125 -7.328125 "/></g></g></g><g fill="#100f0d" fill-opacity="1"><g transform="translate(235.136232, 289.453043)"><g/></g></g><g fill="#100f0d" fill-opacity="1"><g transform="translate(256.838165, 289.453043)"><g><path d="M 12.546875 -4.671875 C 12.359375 -3.117188 11.78125 -1.914062 10.8125 -1.0625 C 9.851562 -0.21875 8.566406 0.203125 6.953125 0.203125 C 5.210938 0.203125 3.816406 -0.421875 2.765625 -1.671875 C 1.722656 -2.921875 1.203125 -4.585938 1.203125 -6.671875 L 1.203125 -8.09375 C 1.203125 -9.457031 1.445312 -10.660156 1.9375 -11.703125 C 2.425781 -12.742188 3.117188 -13.539062 4.015625 -14.09375 C 4.910156 -14.65625 5.945312 -14.9375 7.125 -14.9375 C 8.695312 -14.9375 9.953125 -14.5 10.890625 -13.625 C 11.835938 -12.75 12.390625 -11.539062 12.546875 -10 L 10.59375 -10 C 10.425781 -11.164062 10.0625 -12.007812 9.5 -12.53125 C 8.9375 -13.0625 8.144531 -13.328125 7.125 -13.328125 C 5.882812 -13.328125 4.910156 -12.867188 4.203125 -11.953125 C 3.503906 -11.035156 3.15625 -9.734375 3.15625 -8.046875 L 3.15625 -6.609375 C 3.15625 -5.015625 3.488281 -3.742188 4.15625 -2.796875 C 4.820312 -1.859375 5.753906 -1.390625 6.953125 -1.390625 C 8.035156 -1.390625 8.863281 -1.632812 9.4375 -2.125 C 10.019531 -2.613281 10.40625 -3.460938 10.59375 -4.671875 Z M 12.546875 -4.671875 "/></g></g></g><g fill="#100f0d" fill-opacity="1"><g transform="translate(286.891653, 289.453043)"><g><path d="M 13.046875 -6.890625 C 13.046875 -5.441406 12.800781 -4.179688 12.3125 -3.109375 C 11.820312 -2.035156 11.128906 -1.210938 10.234375 -0.640625 C 9.347656 -0.078125 8.3125 0.203125 7.125 0.203125 C 5.96875 0.203125 4.941406 -0.078125 4.046875 -0.640625 C 3.148438 -1.210938 2.453125 -2.023438 1.953125 -3.078125 C 1.460938 -4.140625 1.207031 -5.367188 1.1875 -6.765625 L 1.1875 -7.8125 C 1.1875 -9.226562 1.429688 -10.476562 1.921875 -11.5625 C 2.421875 -12.65625 3.117188 -13.488281 4.015625 -14.0625 C 4.921875 -14.644531 5.953125 -14.9375 7.109375 -14.9375 C 8.285156 -14.9375 9.320312 -14.648438 10.21875 -14.078125 C 11.125 -13.503906 11.820312 -12.675781 12.3125 -11.59375 C 12.800781 -10.507812 13.046875 -9.25 13.046875 -7.8125 Z M 11.109375 -7.84375 C 11.109375 -9.582031 10.753906 -10.921875 10.046875 -11.859375 C 9.347656 -12.796875 8.367188 -13.265625 7.109375 -13.265625 C 5.878906 -13.265625 4.910156 -12.796875 4.203125 -11.859375 C 3.503906 -10.921875 3.144531 -9.625 3.125 -7.96875 L 3.125 -6.890625 C 3.125 -5.191406 3.476562 -3.859375 4.1875 -2.890625 C 4.90625 -1.929688 5.882812 -1.453125 7.125 -1.453125 C 8.382812 -1.453125 9.359375 -1.90625 10.046875 -2.8125 C 10.734375 -3.726562 11.085938 -5.039062 11.109375 -6.75 Z M 11.109375 -7.84375 "/></g></g></g><g fill="#100f0d" fill-opacity="1"><g transform="translate(317.703448, 289.453043)"><g><path d="M 1.703125 0 L 1.703125 -14.734375 L 5.875 -14.734375 C 7.15625 -14.734375 8.285156 -14.445312 9.265625 -13.875 C 10.253906 -13.3125 11.015625 -12.503906 11.546875 -11.453125 C 12.085938 -10.410156 12.359375 -9.210938 12.359375 -7.859375 L 12.359375 -6.921875 C 12.359375 -5.523438 12.085938 -4.304688 11.546875 -3.265625 C 11.015625 -2.222656 10.25 -1.421875 9.25 -0.859375 C 8.257812 -0.296875 7.101562 -0.0078125 5.78125 0 Z M 3.65625 -13.125 L 3.65625 -1.59375 L 5.703125 -1.59375 C 7.191406 -1.59375 8.351562 -2.054688 9.1875 -2.984375 C 10.019531 -3.910156 10.4375 -5.234375 10.4375 -6.953125 L 10.4375 -7.8125 C 10.4375 -9.488281 10.039062 -10.789062 9.25 -11.71875 C 8.46875 -12.644531 7.359375 -13.113281 5.921875 -13.125 Z M 3.65625 -13.125 "/></g></g></g><g fill="#100f0d" fill-opacity="1"><g transform="translate(347.858055, 289.453043)"><g><path d="M 10.03125 -6.8125 L 3.65625 -6.8125 L 3.65625 -1.59375 L 11.0625 -1.59375 L 11.0625 0 L 1.703125 0 L 1.703125 -14.734375 L 10.96875 -14.734375 L 10.96875 -13.125 L 3.65625 -13.125 L 3.65625 -8.390625 L 10.03125 -8.390625 Z M 10.03125 -6.8125 "/></g></g></g><g fill="#100f0d" fill-opacity="1"><g transform="translate(376.202802, 289.453043)"><g><path d="M 7.109375 -5.953125 L 3.65625 -5.953125 L 3.65625 0 L 1.703125 0 L 1.703125 -14.734375 L 6.578125 -14.734375 C 8.234375 -14.734375 9.507812 -14.351562 10.40625 -13.59375 C 11.300781 -12.84375 11.75 -11.742188 11.75 -10.296875 C 11.75 -9.378906 11.5 -8.578125 11 -7.890625 C 10.507812 -7.210938 9.820312 -6.707031 8.9375 -6.375 L 12.390625 -0.125 L 12.390625 0 L 10.3125 0 Z M 3.65625 -7.546875 L 6.640625 -7.546875 C 7.597656 -7.546875 8.363281 -7.796875 8.9375 -8.296875 C 9.507812 -8.796875 9.796875 -9.460938 9.796875 -10.296875 C 9.796875 -11.210938 9.523438 -11.910156 8.984375 -12.390625 C 8.441406 -12.878906 7.65625 -13.125 6.625 -13.125 L 3.65625 -13.125 Z M 3.65625 -7.546875 "/></g></g></g><g fill="#100f0d" fill-opacity="1"><g transform="translate(405.528308, 289.453043)"><g><path d="M 6.046875 -6.5625 C 4.378906 -7.039062 3.164062 -7.628906 2.40625 -8.328125 C 1.65625 -9.023438 1.28125 -9.890625 1.28125 -10.921875 C 1.28125 -12.078125 1.742188 -13.035156 2.671875 -13.796875 C 3.597656 -14.554688 4.800781 -14.9375 6.28125 -14.9375 C 7.289062 -14.9375 8.191406 -14.738281 8.984375 -14.34375 C 9.773438 -13.957031 10.390625 -13.414062 10.828125 -12.71875 C 11.265625 -12.03125 11.484375 -11.28125 11.484375 -10.46875 L 9.53125 -10.46875 C 9.53125 -11.363281 9.242188 -12.0625 8.671875 -12.5625 C 8.109375 -13.070312 7.3125 -13.328125 6.28125 -13.328125 C 5.320312 -13.328125 4.570312 -13.113281 4.03125 -12.6875 C 3.5 -12.269531 3.234375 -11.691406 3.234375 -10.953125 C 3.234375 -10.347656 3.488281 -9.835938 4 -9.421875 C 4.507812 -9.003906 5.375 -8.625 6.59375 -8.28125 C 7.820312 -7.9375 8.78125 -7.554688 9.46875 -7.140625 C 10.164062 -6.734375 10.679688 -6.25 11.015625 -5.6875 C 11.347656 -5.132812 11.515625 -4.488281 11.515625 -3.75 C 11.515625 -2.550781 11.046875 -1.59375 10.109375 -0.875 C 9.179688 -0.15625 7.941406 0.203125 6.390625 0.203125 C 5.367188 0.203125 4.421875 0.0078125 3.546875 -0.375 C 2.671875 -0.769531 1.992188 -1.300781 1.515625 -1.96875 C 1.046875 -2.644531 0.8125 -3.410156 0.8125 -4.265625 L 2.765625 -4.265625 C 2.765625 -3.378906 3.09375 -2.675781 3.75 -2.15625 C 4.40625 -1.644531 5.285156 -1.390625 6.390625 -1.390625 C 7.410156 -1.390625 8.191406 -1.597656 8.734375 -2.015625 C 9.285156 -2.429688 9.5625 -3 9.5625 -3.71875 C 9.5625 -4.445312 9.304688 -5.003906 8.796875 -5.390625 C 8.296875 -5.785156 7.378906 -6.175781 6.046875 -6.5625 Z M 6.046875 -6.5625 "/></g></g></g><path fill="#100f0d" d="M 3.632812 260.582031 C 3.632812 260.582031 73.03125 205.5 85.324219 209.832031 C 97.621094 214.167969 129.808594 163.601562 139.933594 171.90625 C 150.058594 180.214844 152.230469 195.746094 162.71875 188.882812 C 173.203125 182.019531 232.152344 118.085938 243.726562 131.09375 C 255.296875 144.09375 282.0625 180.214844 295.800781 177.6875 C 309.546875 175.160156 314.96875 194.910156 324.734375 194.964844 C 334.496094 195.023438 344.988281 167.933594 355.113281 174.433594 C 365.238281 180.9375 378.621094 193.941406 389.46875 203.332031 C 400.316406 212.722656 449.863281 262.207031 442.628906 260.582031 C 435.394531 258.957031 423.824219 238.726562 408.636719 238.371094 C 393.445312 238.007812 389.46875 232.230469 398.871094 241.980469 C 408.273438 251.734375 420.570312 265.097656 403.207031 250.652344 C 385.851562 236.199219 383.679688 239.8125 369.9375 227.171875 C 356.195312 214.527344 358.003906 207.667969 342.453125 205.5 C 326.902344 203.332031 321.300781 200.261719 329.253906 208.929688 C 337.210938 217.601562 342.273438 225.003906 342.273438 225.003906 C 342.273438 225.003906 350.953125 238.007812 338.65625 225.003906 C 326.359375 212 322.019531 207.304688 317.140625 205.5 C 312.253906 203.691406 308.820312 194.484375 308.640625 193.21875 C 308.457031 191.953125 307.375 181.660156 299.238281 181.660156 C 291.101562 181.660156 288.566406 181.839844 288.566406 184.914062 C 288.566406 187.980469 280.429688 184.367188 277.902344 182.203125 C 275.371094 180.03125 240.652344 133.078125 237.578125 138.675781 C 234.5 144.277344 236.3125 144.457031 236.3125 149.152344 C 236.3125 153.847656 246.4375 159.625 250.597656 167.933594 C 254.753906 176.242188 250.054688 168.292969 255.296875 178.589844 C 260.542969 188.882812 265.605469 192.675781 252.945312 183.824219 C 240.292969 174.980469 236.492188 160.890625 230.886719 163.238281 C 225.28125 165.585938 229.984375 164.683594 227.089844 172.449219 C 224.199219 180.214844 229.800781 172.449219 229.621094 183.648438 C 229.441406 194.84375 246.078125 192.042969 254.753906 205.589844 C 263.433594 219.132812 265.875 220.21875 273.199219 224.550781 C 280.523438 228.886719 289.742188 236.199219 281.605469 232.136719 C 273.46875 228.074219 258.28125 226.71875 250.6875 220.488281 C 243.09375 214.257812 240.109375 216.695312 239.292969 222.925781 C 238.480469 229.15625 250.957031 226.992188 249.875 232.949219 C 248.789062 238.910156 254.484375 237.011719 267.777344 252.722656 C 281.0625 268.4375 283.777344 266.542969 271.027344 260.582031 C 258.28125 254.621094 256.109375 245.683594 243.09375 242.433594 C 230.070312 239.179688 229.257812 236.199219 215.15625 232.40625 C 201.050781 228.617188 210.273438 250.289062 198.882812 239.179688 C 187.488281 228.074219 173.113281 212.632812 165.25 208.300781 C 157.382812 203.964844 157.652344 207.214844 150.601562 200.710938 C 143.550781 194.214844 138.667969 190.058594 141.652344 197.144531 C 144.636719 204.234375 150.871094 210.464844 154.398438 218.320312 C 157.925781 226.175781 153.585938 223.875 156.164062 227.667969 C 158.738281 231.460938 159.960938 232.273438 161.042969 235.660156 C 162.128906 239.046875 161.992188 239.316406 158.0625 235.390625 C 154.128906 231.460938 152.5 231.324219 152.09375 228.617188 C 151.6875 225.90625 151.6875 229.15625 145.175781 224.824219 C 138.667969 220.488281 135.683594 217.914062 128.632812 216.15625 C 121.582031 214.394531 123.34375 210.332031 119.273438 213.445312 C 115.207031 216.5625 115.070312 212.90625 113.714844 217.507812 C 112.359375 222.113281 119.003906 220.355469 122.53125 225.363281 C 126.054688 230.375 121.039062 227.804688 131.75 235.660156 C 142.464844 243.515625 136.90625 241.347656 142.601562 246.359375 C 148.296875 251.371094 152.773438 251.371094 156.164062 257.0625 C 159.554688 262.75 164.027344 270.332031 157.382812 263.289062 C 150.738281 256.246094 149.925781 255.433594 143.144531 254.894531 C 136.363281 254.351562 135.277344 258.820312 130.125 253.808594 C 124.96875 248.796875 109.644531 249.746094 103.136719 242.570312 C 96.625 235.390625 91.339844 225.5 80.757812 229.832031 C 70.183594 234.167969 62.996094 225.230469 58.519531 231.054688 C 54.042969 236.878906 57.976562 231.597656 64.078125 238.640625 C 70.183594 245.683594 72.351562 244.328125 73.707031 247.171875 C 75.0625 250.019531 75.0625 247.984375 68.554688 245.683594 C 62.042969 243.378906 65.164062 242.570312 62.042969 243.378906 C 58.925781 244.191406 52.550781 233.355469 39.667969 241.886719 C 26.785156 250.425781 30.582031 243.378906 21.496094 249.476562 C 12.410156 255.570312 0.148438 265.59375 3.632812 260.582031 " fill-opacity="1" fill-rule="nonzero"/></svg>