<svg xmlns="http://www.w3.org/2000/svg" xmlns:xlink="http://www.w3.org/1999/xlink" width="1000" zoomAndPan="magnify" viewBox="0 0 750 749.999995" height="1000" preserveAspectRatio="xMidYMid meet" version="1.0"><defs><g/></defs><path fill="#100f0d" d="M 42.953125 423.605469 C 42.953125 423.605469 147.042969 340.847656 165.488281 347.359375 C 183.933594 353.871094 232.210938 277.898438 247.398438 290.378906 C 262.589844 302.859375 265.84375 326.191406 281.578125 315.886719 C 297.308594 305.570312 385.726562 209.515625 403.089844 229.054688 C 420.445312 248.589844 460.589844 302.859375 481.203125 299.058594 C 501.816406 295.261719 509.953125 324.941406 524.601562 325.023438 C 539.246094 325.109375 554.980469 284.410156 570.167969 294.175781 C 585.355469 303.945312 605.429688 323.484375 621.699219 337.59375 C 637.972656 351.699219 712.292969 426.050781 701.445312 423.605469 C 690.59375 421.164062 673.234375 390.773438 650.453125 390.234375 C 627.667969 389.691406 621.699219 381.011719 635.804688 395.660156 C 649.910156 410.3125 668.351562 430.394531 642.3125 408.6875 C 616.277344 386.976562 613.023438 392.40625 592.40625 373.410156 C 571.792969 354.414062 574.507812 344.105469 551.179688 340.847656 C 527.851562 337.59375 519.449219 332.980469 531.378906 346 C 543.316406 359.03125 550.910156 370.152344 550.910156 370.152344 C 550.910156 370.152344 563.929688 389.691406 545.484375 370.152344 C 527.042969 350.617188 520.53125 343.5625 513.207031 340.847656 C 505.882812 338.132812 500.730469 324.296875 500.460938 322.394531 C 500.1875 320.496094 498.5625 305.03125 486.359375 305.03125 C 474.152344 305.03125 470.351562 305.300781 470.351562 309.917969 C 470.351562 314.527344 458.144531 309.097656 454.351562 305.847656 C 450.558594 302.585938 398.476562 232.039062 393.867188 240.453125 C 389.253906 248.863281 391.964844 249.132812 391.964844 256.1875 C 391.964844 263.246094 407.160156 271.925781 413.394531 284.410156 C 419.632812 296.890625 412.582031 284.949219 420.445312 300.417969 C 428.3125 315.886719 435.90625 321.582031 416.917969 308.285156 C 397.9375 294.996094 392.242188 273.828125 383.832031 277.355469 C 375.421875 280.882812 382.476562 279.523438 378.136719 291.191406 C 373.796875 302.859375 382.199219 291.191406 381.933594 308.015625 C 381.660156 324.839844 406.617188 320.632812 419.632812 340.984375 C 432.648438 361.332031 436.3125 362.964844 447.296875 369.476562 C 458.28125 375.988281 472.117188 386.976562 459.910156 380.871094 C 447.707031 374.769531 424.921875 372.730469 413.53125 363.371094 C 402.136719 354.007812 397.664062 357.671875 396.441406 367.03125 C 395.222656 376.394531 413.9375 373.140625 412.308594 382.089844 C 410.6875 391.046875 419.226562 388.195312 439.164062 411.800781 C 459.097656 435.414062 463.167969 432.5625 444.039062 423.605469 C 424.921875 414.65625 421.664062 401.226562 402.136719 396.339844 C 382.609375 391.453125 381.386719 386.976562 360.234375 381.277344 C 339.078125 375.582031 352.910156 408.144531 335.820312 391.453125 C 318.734375 374.769531 297.171875 351.566406 285.375 345.058594 C 273.574219 338.539062 273.980469 343.425781 263.402344 333.65625 C 252.824219 323.890625 245.5 317.648438 249.976562 328.296875 C 254.453125 338.945312 263.808594 348.308594 269.101562 360.113281 C 274.390625 371.914062 267.878906 368.460938 271.742188 374.15625 C 275.609375 379.855469 277.441406 381.078125 279.066406 386.164062 C 280.695312 391.253906 280.492188 391.660156 274.59375 385.757812 C 268.691406 379.855469 266.25 379.652344 265.640625 375.582031 C 265.03125 371.511719 265.03125 376.394531 255.265625 369.882812 C 245.5 363.371094 241.027344 359.503906 230.449219 356.859375 C 219.871094 354.210938 222.515625 348.109375 216.410156 352.789062 C 210.308594 357.46875 210.105469 351.976562 208.070312 358.894531 C 206.039062 365.8125 216.003906 363.167969 221.296875 370.695312 C 226.582031 378.222656 219.058594 374.359375 235.128906 386.164062 C 251.199219 397.964844 242.859375 394.707031 251.402344 402.242188 C 259.945312 409.769531 266.660156 409.769531 271.742188 418.320312 C 276.832031 426.863281 283.542969 438.257812 273.574219 427.675781 C 263.605469 417.09375 262.386719 415.875 252.214844 415.0625 C 242.042969 414.246094 240.417969 420.964844 232.6875 413.433594 C 224.957031 405.902344 201.96875 407.328125 192.203125 396.542969 C 182.441406 385.757812 174.507812 370.898438 158.640625 377.410156 C 142.773438 383.921875 131.992188 370.492188 125.277344 379.246094 C 118.566406 387.996094 124.464844 380.058594 133.617188 390.640625 C 142.773438 401.226562 146.027344 399.1875 148.0625 403.460938 C 150.09375 407.738281 150.09375 404.679688 140.332031 401.226562 C 130.566406 397.761719 135.246094 396.542969 130.566406 397.761719 C 125.886719 398.984375 116.328125 382.703125 97 395.523438 C 77.675781 408.347656 83.375 397.761719 69.742188 406.921875 C 56.113281 416.078125 37.726562 431.140625 42.953125 423.605469 " fill-opacity="1" fill-rule="nonzero"/><path fill="#231f20" d="M 375 0 C 167.84375 0 0 167.992188 0 375 C 0 582.007812 167.84375 750 375 750 C 582.15625 750 750 582.007812 750 375 C 750 167.992188 582.15625 0 375 0 Z M 375 726.261719 C 180.996094 726.261719 23.738281 569.003906 23.738281 375 C 23.738281 180.996094 180.996094 23.738281 375 23.738281 C 569.003906 23.738281 726.261719 180.996094 726.261719 375 C 726.261719 569.003906 569.003906 726.261719 375 726.261719 Z M 375 726.261719 " fill-opacity="1" fill-rule="nonzero"/><g fill="#100f0d" fill-opacity="1"><g transform="translate(180.522463, 477.348957)"><g><path d="M 3.5625 0 L 3.5625 -30.734375 L 13.609375 -30.734375 C 16.953125 -30.734375 19.460938 -30.039062 21.140625 -28.65625 C 22.828125 -27.28125 23.671875 -25.242188 23.671875 -22.546875 C 23.671875 -21.109375 23.257812 -19.835938 22.4375 -18.734375 C 21.625 -17.628906 20.515625 -16.773438 19.109375 -16.171875 C 20.765625 -15.703125 22.070312 -14.816406 23.03125 -13.515625 C 24 -12.210938 24.484375 -10.660156 24.484375 -8.859375 C 24.484375 -6.109375 23.585938 -3.941406 21.796875 -2.359375 C 20.015625 -0.785156 17.492188 0 14.234375 0 Z M 7.625 -14.375 L 7.625 -3.3125 L 14.3125 -3.3125 C 16.195312 -3.3125 17.679688 -3.800781 18.765625 -4.78125 C 19.859375 -5.757812 20.40625 -7.109375 20.40625 -8.828125 C 20.40625 -12.523438 18.394531 -14.375 14.375 -14.375 Z M 7.625 -17.625 L 13.75 -17.625 C 15.519531 -17.625 16.9375 -18.066406 18 -18.953125 C 19.0625 -19.835938 19.59375 -21.039062 19.59375 -22.5625 C 19.59375 -24.25 19.097656 -25.476562 18.109375 -26.25 C 17.128906 -27.019531 15.628906 -27.40625 13.609375 -27.40625 L 7.625 -27.40625 Z M 7.625 -17.625 "/></g></g></g><g fill="#100f0d" fill-opacity="1"><g transform="translate(242.012663, 477.348957)"><g><path d="M 7.640625 -3.3125 L 22.203125 -3.3125 L 22.203125 0 L 3.5625 0 L 3.5625 -30.734375 L 7.640625 -30.734375 Z M 7.640625 -3.3125 "/></g></g></g><g fill="#100f0d" fill-opacity="1"><g transform="translate(299.852062, 477.348957)"><g><path d="M 25.203125 -30.734375 L 25.203125 -9.84375 C 25.191406 -6.9375 24.28125 -4.5625 22.46875 -2.71875 C 20.664062 -0.875 18.210938 0.15625 15.109375 0.375 L 14.03125 0.421875 C 10.675781 0.421875 8 -0.484375 6 -2.296875 C 4 -4.117188 2.984375 -6.617188 2.953125 -9.796875 L 2.953125 -30.734375 L 6.96875 -30.734375 L 6.96875 -9.921875 C 6.96875 -7.703125 7.578125 -5.972656 8.796875 -4.734375 C 10.023438 -3.503906 11.769531 -2.890625 14.03125 -2.890625 C 16.332031 -2.890625 18.085938 -3.5 19.296875 -4.71875 C 20.515625 -5.945312 21.125 -7.675781 21.125 -9.90625 L 21.125 -30.734375 Z M 25.203125 -30.734375 "/></g></g></g><g fill="#100f0d" fill-opacity="1"><g transform="translate(362.460716, 477.348957)"><g><path d="M 20.9375 -14.203125 L 7.625 -14.203125 L 7.625 -3.3125 L 23.09375 -3.3125 L 23.09375 0 L 3.5625 0 L 3.5625 -30.734375 L 22.890625 -30.734375 L 22.890625 -27.40625 L 7.625 -27.40625 L 7.625 -17.515625 L 20.9375 -17.515625 Z M 20.9375 -14.203125 "/></g></g></g><g fill="#100f0d" fill-opacity="1"><g transform="translate(421.608494, 477.348957)"><g><path d="M 12.625 -13.703125 C 9.144531 -14.703125 6.613281 -15.925781 5.03125 -17.375 C 3.445312 -18.832031 2.65625 -20.632812 2.65625 -22.78125 C 2.65625 -25.195312 3.625 -27.195312 5.5625 -28.78125 C 7.5 -30.363281 10.015625 -31.15625 13.109375 -31.15625 C 15.222656 -31.15625 17.101562 -30.742188 18.75 -29.921875 C 20.40625 -29.109375 21.6875 -27.984375 22.59375 -26.546875 C 23.5 -25.117188 23.953125 -23.550781 23.953125 -21.84375 L 19.890625 -21.84375 C 19.890625 -23.707031 19.296875 -25.171875 18.109375 -26.234375 C 16.929688 -27.296875 15.265625 -27.828125 13.109375 -27.828125 C 11.109375 -27.828125 9.546875 -27.382812 8.421875 -26.5 C 7.304688 -25.625 6.75 -24.40625 6.75 -22.84375 C 6.75 -21.59375 7.28125 -20.53125 8.34375 -19.65625 C 9.40625 -18.789062 11.210938 -18 13.765625 -17.28125 C 16.328125 -16.570312 18.328125 -15.78125 19.765625 -14.90625 C 21.210938 -14.039062 22.285156 -13.03125 22.984375 -11.875 C 23.679688 -10.726562 24.03125 -9.375 24.03125 -7.8125 C 24.03125 -5.320312 23.054688 -3.328125 21.109375 -1.828125 C 19.171875 -0.328125 16.578125 0.421875 13.328125 0.421875 C 11.210938 0.421875 9.238281 0.0195312 7.40625 -0.78125 C 5.582031 -1.59375 4.171875 -2.703125 3.171875 -4.109375 C 2.179688 -5.523438 1.6875 -7.125 1.6875 -8.90625 L 5.765625 -8.90625 C 5.765625 -7.050781 6.445312 -5.582031 7.8125 -4.5 C 9.1875 -3.425781 11.023438 -2.890625 13.328125 -2.890625 C 15.460938 -2.890625 17.097656 -3.328125 18.234375 -4.203125 C 19.378906 -5.078125 19.953125 -6.265625 19.953125 -7.765625 C 19.953125 -9.273438 19.421875 -10.441406 18.359375 -11.265625 C 17.304688 -12.085938 15.394531 -12.898438 12.625 -13.703125 Z M 12.625 -13.703125 "/></g></g></g><g fill="#100f0d" fill-opacity="1"><g transform="translate(481.832521, 477.348957)"><g><path d="M 11.375 -14.296875 L 7.625 -10.390625 L 7.625 0 L 3.5625 0 L 3.5625 -30.734375 L 7.625 -30.734375 L 7.625 -15.53125 L 21.28125 -30.734375 L 26.171875 -30.734375 L 14.078125 -17.15625 L 27.125 0 L 22.265625 0 Z M 11.375 -14.296875 "/></g></g></g><g fill="#100f0d" fill-opacity="1"><g transform="translate(543.512648, 477.348957)"><g><path d="M 12.9375 -15.3125 L 20.96875 -30.734375 L 25.5625 -30.734375 L 14.96875 -11.46875 L 14.96875 0 L 10.921875 0 L 10.921875 -11.46875 L 0.3125 -30.734375 L 4.96875 -30.734375 Z M 12.9375 -15.3125 "/></g></g></g><g fill="#100f0d" fill-opacity="1"><g transform="translate(207.030278, 537.348954)"><g><path d="M 26.171875 -9.75 C 25.796875 -6.5 24.597656 -3.988281 22.578125 -2.21875 C 20.554688 -0.457031 17.875 0.421875 14.53125 0.421875 C 10.894531 0.421875 7.984375 -0.878906 5.796875 -3.484375 C 3.609375 -6.085938 2.515625 -9.570312 2.515625 -13.9375 L 2.515625 -16.890625 C 2.515625 -19.742188 3.023438 -22.253906 4.046875 -24.421875 C 5.066406 -26.585938 6.507812 -28.25 8.375 -29.40625 C 10.25 -30.570312 12.421875 -31.15625 14.890625 -31.15625 C 18.148438 -31.15625 20.765625 -30.242188 22.734375 -28.421875 C 24.703125 -26.597656 25.847656 -24.078125 26.171875 -20.859375 L 22.109375 -20.859375 C 21.753906 -23.304688 20.988281 -25.078125 19.8125 -26.171875 C 18.632812 -27.273438 16.992188 -27.828125 14.890625 -27.828125 C 12.296875 -27.828125 10.265625 -26.867188 8.796875 -24.953125 C 7.328125 -23.035156 6.59375 -20.3125 6.59375 -16.78125 L 6.59375 -13.8125 C 6.59375 -10.46875 7.285156 -7.8125 8.671875 -5.84375 C 10.066406 -3.875 12.019531 -2.890625 14.53125 -2.890625 C 16.78125 -2.890625 18.503906 -3.398438 19.703125 -4.421875 C 20.910156 -5.441406 21.710938 -7.21875 22.109375 -9.75 Z M 26.171875 -9.75 "/></g></g></g><g fill="#100f0d" fill-opacity="1"><g transform="translate(269.744447, 537.348954)"><g><path d="M 27.21875 -14.375 C 27.21875 -11.363281 26.707031 -8.734375 25.6875 -6.484375 C 24.675781 -4.242188 23.238281 -2.53125 21.375 -1.34375 C 19.519531 -0.164062 17.359375 0.421875 14.890625 0.421875 C 12.460938 0.421875 10.3125 -0.171875 8.4375 -1.359375 C 6.570312 -2.546875 5.117188 -4.238281 4.078125 -6.4375 C 3.046875 -8.644531 2.515625 -11.203125 2.484375 -14.109375 L 2.484375 -16.3125 C 2.484375 -19.269531 3 -21.878906 4.03125 -24.140625 C 5.0625 -26.410156 6.515625 -28.144531 8.390625 -29.34375 C 10.265625 -30.550781 12.414062 -31.15625 14.84375 -31.15625 C 17.300781 -31.15625 19.46875 -30.5625 21.34375 -29.375 C 23.226562 -28.1875 24.675781 -26.460938 25.6875 -24.203125 C 26.707031 -21.941406 27.21875 -19.3125 27.21875 -16.3125 Z M 23.171875 -16.359375 C 23.171875 -20.003906 22.4375 -22.800781 20.96875 -24.75 C 19.507812 -26.695312 17.46875 -27.671875 14.84375 -27.671875 C 12.28125 -27.671875 10.265625 -26.695312 8.796875 -24.75 C 7.328125 -22.800781 6.566406 -20.097656 6.515625 -16.640625 L 6.515625 -14.375 C 6.515625 -10.84375 7.257812 -8.066406 8.75 -6.046875 C 10.238281 -4.023438 12.285156 -3.015625 14.890625 -3.015625 C 17.503906 -3.015625 19.523438 -3.96875 20.953125 -5.875 C 22.390625 -7.78125 23.128906 -10.515625 23.171875 -14.078125 Z M 23.171875 -16.359375 "/></g></g></g><g fill="#100f0d" fill-opacity="1"><g transform="translate(334.041334, 537.348954)"><g><path d="M 3.5625 0 L 3.5625 -30.734375 L 12.25 -30.734375 C 14.914062 -30.734375 17.273438 -30.140625 19.328125 -28.953125 C 21.390625 -27.773438 22.976562 -26.09375 24.09375 -23.90625 C 25.21875 -21.726562 25.785156 -19.226562 25.796875 -16.40625 L 25.796875 -14.4375 C 25.796875 -11.539062 25.234375 -9 24.109375 -6.8125 C 22.992188 -4.632812 21.398438 -2.960938 19.328125 -1.796875 C 17.253906 -0.628906 14.835938 -0.03125 12.078125 0 Z M 7.625 -27.40625 L 7.625 -3.3125 L 11.890625 -3.3125 C 15.015625 -3.3125 17.441406 -4.28125 19.171875 -6.21875 C 20.910156 -8.164062 21.78125 -10.9375 21.78125 -14.53125 L 21.78125 -16.3125 C 21.78125 -19.800781 20.960938 -22.515625 19.328125 -24.453125 C 17.691406 -26.390625 15.363281 -27.375 12.34375 -27.40625 Z M 7.625 -27.40625 "/></g></g></g><g fill="#100f0d" fill-opacity="1"><g transform="translate(396.966532, 537.348954)"><g><path d="M 20.9375 -14.203125 L 7.625 -14.203125 L 7.625 -3.3125 L 23.09375 -3.3125 L 23.09375 0 L 3.5625 0 L 3.5625 -30.734375 L 22.890625 -30.734375 L 22.890625 -27.40625 L 7.625 -27.40625 L 7.625 -17.515625 L 20.9375 -17.515625 Z M 20.9375 -14.203125 "/></g></g></g><g fill="#100f0d" fill-opacity="1"><g transform="translate(456.11431, 537.348954)"><g><path d="M 14.84375 -12.4375 L 7.625 -12.4375 L 7.625 0 L 3.546875 0 L 3.546875 -30.734375 L 13.71875 -30.734375 C 17.1875 -30.734375 19.851562 -29.945312 21.71875 -28.375 C 23.582031 -26.800781 24.515625 -24.503906 24.515625 -21.484375 C 24.515625 -19.578125 23.992188 -17.910156 22.953125 -16.484375 C 21.921875 -15.066406 20.484375 -14.003906 18.640625 -13.296875 L 25.859375 -0.25 L 25.859375 0 L 21.515625 0 Z M 7.625 -15.75 L 13.84375 -15.75 C 15.863281 -15.75 17.46875 -16.269531 18.65625 -17.3125 C 19.84375 -18.351562 20.4375 -19.742188 20.4375 -21.484375 C 20.4375 -23.390625 19.867188 -24.847656 18.734375 -25.859375 C 17.597656 -26.867188 15.960938 -27.382812 13.828125 -27.40625 L 7.625 -27.40625 Z M 7.625 -15.75 "/></g></g></g><g fill="#100f0d" fill-opacity="1"><g transform="translate(517.309071, 537.348954)"><g><path d="M 12.625 -13.703125 C 9.144531 -14.703125 6.613281 -15.925781 5.03125 -17.375 C 3.445312 -18.832031 2.65625 -20.632812 2.65625 -22.78125 C 2.65625 -25.195312 3.625 -27.195312 5.5625 -28.78125 C 7.5 -30.363281 10.015625 -31.15625 13.109375 -31.15625 C 15.222656 -31.15625 17.101562 -30.742188 18.75 -29.921875 C 20.40625 -29.109375 21.6875 -27.984375 22.59375 -26.546875 C 23.5 -25.117188 23.953125 -23.550781 23.953125 -21.84375 L 19.890625 -21.84375 C 19.890625 -23.707031 19.296875 -25.171875 18.109375 -26.234375 C 16.929688 -27.296875 15.265625 -27.828125 13.109375 -27.828125 C 11.109375 -27.828125 9.546875 -27.382812 8.421875 -26.5 C 7.304688 -25.625 6.75 -24.40625 6.75 -22.84375 C 6.75 -21.59375 7.28125 -20.53125 8.34375 -19.65625 C 9.40625 -18.789062 11.210938 -18 13.765625 -17.28125 C 16.328125 -16.570312 18.328125 -15.78125 19.765625 -14.90625 C 21.210938 -14.039062 22.285156 -13.03125 22.984375 -11.875 C 23.679688 -10.726562 24.03125 -9.375 24.03125 -7.8125 C 24.03125 -5.320312 23.054688 -3.328125 21.109375 -1.828125 C 19.171875 -0.328125 16.578125 0.421875 13.328125 0.421875 C 11.210938 0.421875 9.238281 0.0195312 7.40625 -0.78125 C 5.582031 -1.59375 4.171875 -2.703125 3.171875 -4.109375 C 2.179688 -5.523438 1.6875 -7.125 1.6875 -8.90625 L 5.765625 -8.90625 C 5.765625 -7.050781 6.445312 -5.582031 7.8125 -4.5 C 9.1875 -3.425781 11.023438 -2.890625 13.328125 -2.890625 C 15.460938 -2.890625 17.097656 -3.328125 18.234375 -4.203125 C 19.378906 -5.078125 19.953125 -6.265625 19.953125 -7.765625 C 19.953125 -9.273438 19.421875 -10.441406 18.359375 -11.265625 C 17.304688 -12.085938 15.394531 -12.898438 12.625 -13.703125 Z M 12.625 -13.703125 "/></g></g></g></svg>